<svg xmlns="http://www.w3.org/2000/svg" viewBox="0 0 345.8 169.38"><defs><style>.cls-1{fill:#fff;}</style></defs><title>Asset 3</title><g id="Layer_2" data-name="Layer 2"><g id="Layer_1-2" data-name="Layer 1"><path class="cls-1" d="M178.86,8.47C177.15,3.23,173.09,0,168.4,0a9.63,9.63,0,0,0-7,3,12.41,12.41,0,0,0-3.16,9.28c1.27,29.1-1.5,59.71-6.69,79.87a11.43,11.43,0,0,1-19.69,4.69c-1.06-1.21-2.18-2.53-3.38-4-8.66-10.45-18.57-24.27-28.16-37.64C71.25,14.72,60.6,1.49,50.74,5.85a5.84,5.84,0,0,0-1.06.61C45,9.87,44,16.69,46.45,31.69c4.88,29.78,1.35,55.38-10.5,76.1-9.26,16.21-20.85,24-23.08,25.42A18.17,18.17,0,0,0,10.5,135c-5.56,4.9-12.65,12.26-9.88,19.58,1.25,3.31,4.85,7.26,14.92,7.26,17.29,0,49.65-10.48,60.92-30.27l2.4-4.17c3.91-6.78,14.78-9.62,18.71-2.44,9.87,18.06,31.87,51.89,63.87,25.39C197,120.88,203.4,83.54,178.86,8.47Z"/><path class="cls-1" d="M343.76,114.46c-6.25-25.4-17.36-51.15-38.64-82.41C275.8-11,205.26.26,211.67,27.4c.14.63,3,10.93,3.18,11.54,2.77,8.93,22.94,77.58-18,107.58-8.68,6.95-9.26,35.14,27.21,16.7,30.78-15.56,37.44-38.32,41.49-49.11a17.35,17.35,0,0,1,7.67-9.14c3.35-1.87,7.29-2,12.35,0,10.48,4.09,20.6,17.82,15.29,37.26C290.51,180.16,358.24,173.22,343.76,114.46ZM283.09,74.22a21.36,21.36,0,0,0-8.31-1.67,20.14,20.14,0,0,0-9.11,2.37c-12.89,6.43-12.08-1.52-12.08-1.52a112.17,112.17,0,0,0-4.84-30.18l-.27-1a3.09,3.09,0,0,1,2.28-3.87,26.17,26.17,0,0,1,5.9-.63c3.7,0,16.3.84,23.63,11.57l0,.05C280.89,50.33,299.34,81.05,283.09,74.22Z"/></g></g></svg>