<!-- Generator: Adobe Illustrator 22.0.1, SVG Export Plug-In  -->
<svg version="1.1"
	 xmlns="http://www.w3.org/2000/svg" xmlns:xlink="http://www.w3.org/1999/xlink" xmlns:a="http://ns.adobe.com/AdobeSVGViewerExtensions/3.0/"
	 x="0px" y="0px" width="527.437px" height="132px" viewBox="0 0 527.437 132" style="enable-background:new 0 0 527.437 132;"
	 xml:space="preserve">
<style type="text/css">
	.st0{fill:#FEFEFE;}
	.st1{fill:#E13236;}
</style>
<defs>
</defs>
<g>
	<path class="st0" d="M17.024,13.225H0V3.191h46.36v10.033H29.336v43.168H17.024V13.225z"/>
	<path class="st0" d="M68.286,16.416c2.406-1.013,5.18-1.52,8.322-1.52V25.84c-1.318-0.101-2.204-0.152-2.66-0.152
		c-3.395,0-6.055,0.951-7.98,2.851c-1.926,1.899-2.888,4.75-2.888,8.55v19.305H51.224V15.504h11.324V20.9
		C63.966,18.924,65.879,17.43,68.286,16.416z"/>
	<path class="st0" d="M114.533,19.418c3.394,3.016,5.092,7.562,5.092,13.643v23.332h-11.096v-5.092
		C106.299,55.1,102.145,57,96.065,57c-3.142,0-5.865-0.531-8.17-1.596c-2.306-1.064-4.066-2.533-5.282-4.408
		c-1.216-1.874-1.824-4.002-1.824-6.384c0-3.8,1.431-6.789,4.294-8.968c2.862-2.178,7.283-3.269,13.262-3.269h9.424
		c0-2.584-0.786-4.571-2.356-5.966c-1.571-1.393-3.927-2.09-7.068-2.09c-2.179,0-4.32,0.342-6.422,1.025
		c-2.103,0.685-3.889,1.609-5.358,2.774l-4.256-8.284c2.229-1.57,4.902-2.785,8.018-3.648c3.116-0.86,6.32-1.291,9.614-1.291
		C106.274,14.896,111.138,16.404,114.533,19.418z M104.425,47.614c1.57-0.937,2.685-2.318,3.344-4.142v-4.181h-8.132
		c-4.864,0-7.296,1.597-7.296,4.788c0,1.52,0.595,2.725,1.786,3.609c1.19,0.888,2.824,1.33,4.902,1.33
		C101.055,49.02,102.854,48.553,104.425,47.614z"/>
	<path class="st0" d="M170.165,15.504l-17.252,40.889h-12.236L123.5,15.504h12.236l11.324,27.816l11.704-27.816H170.165z"/>
	<path class="st0" d="M213.712,39.292H182.78c0.557,2.534,1.874,4.535,3.952,6.004c2.077,1.47,4.661,2.204,7.752,2.204
		c2.128,0,4.015-0.316,5.662-0.949c1.646-0.634,3.179-1.635,4.598-3.003l6.308,6.841C207.201,54.796,201.577,57,194.18,57
		c-4.611,0-8.69-0.898-12.236-2.697c-3.547-1.799-6.283-4.295-8.208-7.486c-1.926-3.192-2.888-6.814-2.888-10.868
		c0-4.002,0.95-7.612,2.85-10.83c1.9-3.217,4.509-5.726,7.828-7.524c3.318-1.797,7.03-2.697,11.134-2.697
		c4.002,0,7.625,0.861,10.868,2.584c3.242,1.723,5.788,4.193,7.638,7.41c1.849,3.218,2.774,6.953,2.774,11.209
		C213.94,36.252,213.864,37.316,213.712,39.292z M185.972,26.145c-1.824,1.52-2.939,3.598-3.344,6.231h20.14
		c-0.406-2.584-1.52-4.647-3.344-6.194c-1.824-1.545-4.054-2.317-6.688-2.317C190.05,23.864,187.796,24.624,185.972,26.145z"/>
	<path class="st0" d="M221.844,0H233.7v56.393h-11.856V0z"/>
	<path class="st1" d="M41.306,80.548c3.47,1.571,6.143,3.8,8.018,6.688c1.874,2.888,2.812,6.308,2.812,10.26
		c0,3.902-0.938,7.309-2.812,10.223c-1.875,2.914-4.548,5.143-8.018,6.688c-3.471,1.546-7.562,2.318-12.274,2.318H18.316v14.668
		H6.004V78.191h23.028C33.744,78.191,37.835,78.979,41.306,80.548z M36.784,104.298c1.925-1.596,2.888-3.862,2.888-6.802
		c0-2.988-0.963-5.282-2.888-6.878c-1.926-1.597-4.738-2.394-8.436-2.394H18.316v18.467h10.032
		C32.046,106.691,34.858,105.895,36.784,104.298z"/>
	<path class="st1" d="M77.102,91.416c2.406-1.013,5.18-1.52,8.322-1.52v10.943c-1.318-0.101-2.204-0.152-2.66-0.152
		c-3.395,0-6.055,0.951-7.98,2.851c-1.926,1.899-2.888,4.75-2.888,8.55v19.305H60.04V90.504h11.324V95.9
		C72.782,93.924,74.695,92.43,77.102,91.416z"/>
	<path class="st1" d="M99.979,129.303c-3.42-1.799-6.093-4.295-8.018-7.486c-1.926-3.192-2.888-6.814-2.888-10.868
		s0.962-7.677,2.888-10.868c1.925-3.191,4.598-5.688,8.018-7.486c3.42-1.797,7.283-2.697,11.59-2.697
		c4.306,0,8.157,0.9,11.552,2.697c3.394,1.799,6.054,4.295,7.98,7.486c1.925,3.191,2.888,6.814,2.888,10.868
		s-0.963,7.676-2.888,10.868c-1.926,3.191-4.586,5.688-7.98,7.486c-3.395,1.799-7.246,2.697-11.552,2.697
		C107.262,132,103.398,131.102,99.979,129.303z M119.055,119.193c1.95-2.051,2.926-4.799,2.926-8.245
		c0-3.445-0.976-6.194-2.926-8.246c-1.951-2.052-4.446-3.078-7.486-3.078c-3.04,0-5.548,1.026-7.524,3.078
		c-1.976,2.052-2.964,4.801-2.964,8.246c0,3.446,0.988,6.194,2.964,8.245c1.976,2.053,4.484,3.078,7.524,3.078
		C114.608,122.271,117.104,121.246,119.055,119.193z"/>
	<path class="st1" d="M154.888,91.416h10.488v9.12h-10.184v30.856h-11.856v-30.856h-6.308v-9.12h6.308v-1.824
		c0-4.66,1.38-8.359,4.142-11.096c2.761-2.736,6.65-4.104,11.666-4.104c1.773,0,3.458,0.189,5.054,0.569
		c1.596,0.38,2.926,0.925,3.99,1.634l-3.116,8.588c-1.368-0.961-2.964-1.443-4.788-1.443c-3.598,0-5.396,1.977-5.396,5.928V91.416z"
		/>
	<path class="st1" d="M210.597,114.292h-30.932c0.557,2.534,1.874,4.535,3.952,6.004c2.077,1.47,4.661,2.204,7.752,2.204
		c2.128,0,4.015-0.316,5.662-0.949c1.646-0.634,3.179-1.635,4.598-3.003l6.308,6.841c-3.851,4.407-9.475,6.611-16.872,6.611
		c-4.611,0-8.69-0.898-12.236-2.697c-3.547-1.799-6.283-4.295-8.208-7.486c-1.926-3.192-2.888-6.814-2.888-10.868
		c0-4.002,0.95-7.612,2.85-10.83c1.9-3.217,4.509-5.726,7.828-7.524c3.318-1.797,7.03-2.697,11.134-2.697
		c4.002,0,7.625,0.861,10.868,2.584c3.242,1.723,5.788,4.193,7.638,7.41c1.849,3.218,2.774,6.953,2.774,11.209
		C210.825,111.252,210.75,112.316,210.597,114.292z M182.857,101.145c-1.824,1.52-2.939,3.598-3.344,6.231h20.14
		c-0.406-2.584-1.52-4.647-3.344-6.194c-1.824-1.545-4.054-2.317-6.688-2.317C186.935,98.864,184.681,99.624,182.857,101.145z"/>
	<path class="st1" d="M222.529,130.746c-3.243-0.836-5.827-1.887-7.752-3.154l3.952-8.512c1.824,1.166,4.028,2.116,6.612,2.85
		c2.584,0.735,5.117,1.103,7.6,1.103c5.016,0,7.524-1.241,7.524-3.724c0-1.166-0.684-2.002-2.052-2.508
		c-1.368-0.506-3.471-0.938-6.308-1.293c-3.344-0.506-6.106-1.089-8.284-1.748c-2.179-0.658-4.066-1.824-5.662-3.496
		c-1.596-1.672-2.394-4.053-2.394-7.144c0-2.584,0.747-4.876,2.242-6.878c1.494-2.001,3.673-3.559,6.536-4.674
		c2.862-1.114,6.244-1.672,10.146-1.672c2.888,0,5.763,0.316,8.626,0.949c2.862,0.635,5.231,1.508,7.106,2.623l-3.952,8.436
		c-3.598-2.025-7.524-3.04-11.78-3.04c-2.534,0-4.434,0.354-5.7,1.063c-1.267,0.711-1.9,1.623-1.9,2.736
		c0,1.268,0.684,2.154,2.052,2.66c1.368,0.507,3.546,0.988,6.536,1.443c3.344,0.559,6.08,1.154,8.208,1.787s3.977,1.785,5.548,3.457
		c1.57,1.672,2.356,4.004,2.356,6.992c0,2.534-0.76,4.788-2.28,6.764c-1.52,1.977-3.737,3.51-6.65,4.599
		c-2.914,1.089-6.372,1.634-10.374,1.634C229.09,132,225.771,131.582,222.529,130.746z"/>
	<path class="st1" d="M262.884,130.746c-3.243-0.836-5.827-1.887-7.752-3.154l3.952-8.512c1.824,1.166,4.028,2.116,6.612,2.85
		c2.584,0.735,5.117,1.103,7.6,1.103c5.016,0,7.524-1.241,7.524-3.724c0-1.166-0.684-2.002-2.052-2.508
		c-1.368-0.506-3.471-0.938-6.308-1.293c-3.344-0.506-6.106-1.089-8.284-1.748c-2.179-0.658-4.066-1.824-5.662-3.496
		c-1.596-1.672-2.394-4.053-2.394-7.144c0-2.584,0.747-4.876,2.242-6.878c1.494-2.001,3.673-3.559,6.536-4.674
		c2.862-1.114,6.244-1.672,10.146-1.672c2.888,0,5.762,0.316,8.625,0.949c2.862,0.635,5.231,1.508,7.106,2.623l-3.952,8.436
		c-3.598-2.025-7.524-3.04-11.78-3.04c-2.534,0-4.434,0.354-5.7,1.063c-1.267,0.711-1.9,1.623-1.9,2.736
		c0,1.268,0.684,2.154,2.052,2.66c1.368,0.507,3.546,0.988,6.536,1.443c3.344,0.559,6.08,1.154,8.208,1.787s3.977,1.785,5.548,3.457
		c1.57,1.672,2.356,4.004,2.356,6.992c0,2.534-0.76,4.788-2.28,6.764c-1.521,1.977-3.737,3.51-6.649,4.599
		C280.3,131.455,276.842,132,272.84,132C269.445,132,266.125,131.582,262.884,130.746z"/>
	<path class="st1" d="M300.047,82.904c-1.368-1.266-2.052-2.837-2.052-4.713c0-1.873,0.684-3.444,2.052-4.711
		c1.368-1.266,3.141-1.9,5.319-1.9c2.178,0,3.953,0.607,5.32,1.824c1.368,1.216,2.053,2.736,2.053,4.56
		c0,1.976-0.685,3.61-2.053,4.902c-1.367,1.292-3.143,1.938-5.32,1.938C303.188,84.805,301.416,84.172,300.047,82.904z
		 M299.439,90.504h11.856v40.889h-11.856V90.504z"/>
	<path class="st1" d="M330.181,129.303c-3.42-1.799-6.094-4.295-8.019-7.486c-1.926-3.192-2.888-6.814-2.888-10.868
		s0.962-7.677,2.888-10.868c1.925-3.191,4.599-5.688,8.019-7.486c3.42-1.797,7.283-2.697,11.59-2.697
		c4.306,0,8.156,0.9,11.553,2.697c3.393,1.799,6.053,4.295,7.979,7.486s2.889,6.814,2.889,10.868s-0.963,7.676-2.889,10.868
		c-1.926,3.191-4.586,5.688-7.979,7.486c-3.396,1.799-7.247,2.697-11.553,2.697C337.464,132,333.601,131.102,330.181,129.303z
		 M349.257,119.193c1.949-2.051,2.926-4.799,2.926-8.245c0-3.445-0.977-6.194-2.926-8.246c-1.951-2.052-4.447-3.078-7.486-3.078
		c-3.04,0-5.549,1.026-7.524,3.078s-2.964,4.801-2.964,8.246c0,3.446,0.988,6.194,2.964,8.245c1.976,2.053,4.484,3.078,7.524,3.078
		C344.81,122.271,347.306,121.246,349.257,119.193z"/>
	<path class="st1" d="M409.22,94.456c3.116,3.04,4.675,7.55,4.675,13.528v23.408h-11.856v-21.584c0-3.242-0.71-5.662-2.128-7.258
		c-1.419-1.597-3.471-2.395-6.156-2.395c-2.99,0-5.371,0.925-7.144,2.773c-1.774,1.851-2.66,4.599-2.66,8.246v20.217h-11.856V90.504
		h11.324v4.788c1.57-1.722,3.521-3.052,5.853-3.989c2.329-0.938,4.889-1.406,7.676-1.406
		C402.012,89.896,406.105,91.416,409.22,94.456z"/>
	<path class="st1" d="M455.694,94.418c3.395,3.016,5.093,7.562,5.093,13.643v23.332H449.69v-5.092
		C447.46,130.1,443.306,132,437.226,132c-3.142,0-5.865-0.531-8.17-1.596c-2.306-1.064-4.066-2.533-5.282-4.408
		c-1.216-1.874-1.824-4.002-1.824-6.384c0-3.8,1.432-6.789,4.295-8.968c2.861-2.178,7.282-3.269,13.262-3.269h9.424
		c0-2.584-0.786-4.571-2.356-5.966c-1.57-1.393-3.927-2.09-7.067-2.09c-2.18,0-4.32,0.342-6.422,1.025
		c-2.104,0.685-3.89,1.609-5.358,2.774l-4.256-8.284c2.229-1.57,4.902-2.785,8.018-3.648c3.116-0.86,6.32-1.291,9.614-1.291
		C447.435,89.896,452.299,91.404,455.694,94.418z M445.586,122.614c1.569-0.937,2.685-2.318,3.344-4.142v-4.181h-8.132
		c-4.864,0-7.296,1.597-7.296,4.788c0,1.52,0.595,2.725,1.786,3.609c1.189,0.888,2.823,1.33,4.901,1.33
		C442.216,124.02,444.015,123.553,445.586,122.614z"/>
	<path class="st1" d="M471.501,75h11.856v56.393h-11.856V75z"/>
	<path class="st1" d="M498.177,130.746c-3.243-0.836-5.827-1.887-7.753-3.154l3.952-8.512c1.824,1.166,4.028,2.116,6.612,2.85
		c2.584,0.735,5.117,1.103,7.6,1.103c5.017,0,7.524-1.241,7.524-3.724c0-1.166-0.684-2.002-2.052-2.508s-3.472-0.938-6.309-1.293
		c-3.344-0.506-6.105-1.089-8.283-1.748c-2.18-0.658-4.066-1.824-5.662-3.496c-1.597-1.672-2.395-4.053-2.395-7.144
		c0-2.584,0.747-4.876,2.242-6.878c1.494-2.001,3.673-3.559,6.536-4.674c2.861-1.114,6.244-1.672,10.146-1.672
		c2.889,0,5.764,0.316,8.626,0.949c2.862,0.635,5.231,1.508,7.106,2.623l-3.952,8.436c-3.598-2.025-7.523-3.04-11.78-3.04
		c-2.534,0-4.434,0.354-5.699,1.063c-1.268,0.711-1.9,1.623-1.9,2.736c0,1.268,0.684,2.154,2.052,2.66
		c1.368,0.507,3.546,0.988,6.536,1.443c3.344,0.559,6.08,1.154,8.208,1.787s3.977,1.785,5.548,3.457
		c1.57,1.672,2.356,4.004,2.356,6.992c0,2.534-0.76,4.788-2.28,6.764c-1.52,1.977-3.737,3.51-6.65,4.599
		c-2.914,1.089-6.372,1.634-10.374,1.634C504.738,132,501.418,131.582,498.177,130.746z"/>
</g>
</svg>