<!-- Generator: Adobe Illustrator 21.0.0, SVG Export Plug-In  -->
<svg version="1.1"
	 xmlns="http://www.w3.org/2000/svg" xmlns:xlink="http://www.w3.org/1999/xlink" xmlns:a="http://ns.adobe.com/AdobeSVGViewerExtensions/3.0/"
	 x="0px" y="0px" width="1181px" height="1181px" viewBox="0 0 1181 1181" style="enable-background:new 0 0 1181 1181;"
	 xml:space="preserve">
<style type="text/css">
	.st0{fill:#FFFF00;}
</style>
<defs>
</defs>
<g id="INZdr3.tif_1_">
	<g>
		<path class="st0" d="M1181,456.982c0,89.012,0,178.024,0,267.036c-0.171,0.772-0.475,1.54-0.493,2.316
			c-0.64,26.585-0.833,53.189-1.994,79.751c-1.08,24.701-2.554,49.419-4.995,74.017c-3.411,34.36-11.565,67.719-24.557,99.779
			c-30.746,75.874-83.482,130.793-158.049,164.452c-44.915,20.274-92.582,29.584-141.502,32.109
			c-40.693,2.1-81.46,2.749-122.194,4.063c-0.865,0.028-1.721,0.324-2.581,0.495c-89.423,0-178.846,0-268.269,0
			c-0.765-0.171-1.526-0.473-2.295-0.494c-31.197-0.845-62.398-1.583-93.593-2.509c-29.687-0.882-59.24-3.241-88.49-8.672
			c-36.351-6.749-71.364-17.7-103.768-35.608c-62.894-34.757-108.409-85.293-135.592-152.061
			c-17.179-42.195-25.594-86.322-28.125-131.56c-1.961-35.047-2.634-70.166-3.891-105.252c-0.168-4.682-0.405-9.361-0.611-14.042
			c0-93.534,0-187.069,0-280.603c0.171-0.777,0.476-1.55,0.493-2.33c0.436-19.403,0.666-38.812,1.294-58.209
			c0.967-29.859,1.885-59.724,5.51-89.428c3.83-31.391,10.589-62.078,21.761-91.707c29.246-77.562,81.234-134.379,156.192-169.75
			C231.472,16.963,280.812,7.279,331.51,4.46c34.948-1.943,69.967-2.605,104.954-3.853c4.579-0.163,9.156-0.403,13.734-0.607
			c93.534,0,187.069,0,280.603,0c0.777,0.171,1.551,0.473,2.332,0.494c24.94,0.641,49.886,1.116,74.821,1.91
			c25.961,0.826,51.896,2.097,77.686,5.519c30.844,4.093,60.977,11.026,89.984,22.369c80.158,31.347,137.393,86.558,171.264,165.689
			c18.51,43.244,27.163,88.857,29.553,135.574c2.088,40.794,2.749,81.661,4.062,122.495
			C1180.536,455.032,1180.829,456.005,1181,456.982z M106.691,590.535c-0.212,0.002-0.423,0.003-0.635,0.005
			c0.589,61.236,0.947,122.476,1.864,183.707c0.458,30.59,1.451,61.194,4.958,91.634c2.521,21.877,6.857,43.372,14.188,64.195
			c20.72,58.848,60.045,99.637,118.437,121.843c31.031,11.801,63.465,16.609,96.377,18.544c45.737,2.689,91.534,3.669,137.346,3.825
			c40.185,0.136,80.371,0.156,120.557,0.104c42.237-0.055,84.476-0.031,126.71-0.475c27.722-0.291,55.439-1.254,83.154-2.095
			c25.671-0.779,51.289-2.276,76.649-6.726c26.556-4.66,52.266-12.134,75.896-25.243c42.892-23.796,72.96-58.812,89.98-104.99
			c11.375-30.862,16.659-62.91,18.188-95.526c1.847-39.383,2.776-78.812,3.776-118.229c0.479-18.899,0.265-37.817,0.264-56.727
			c-0.001-50.875,0.156-101.751-0.157-152.625c-0.25-40.675-0.715-81.357-1.825-122.016c-0.666-24.411-2.225-48.829-4.347-73.159
			c-2.265-25.963-8.202-51.217-17.857-75.521c-18.555-46.703-50.401-81.317-95.278-103.674
			c-31.491-15.689-65.405-23.02-100.234-25.576c-29.889-2.193-59.869-3.375-89.831-4.282c-27.105-0.82-54.238-0.807-81.36-0.904
			c-38.131-0.136-76.264-0.231-114.393,0.011c-59.177,0.376-118.36,0.672-177.526,1.779c-25.431,0.476-50.87,2.39-76.224,4.582
			c-23.895,2.065-47.203,7.454-69.703,15.964c-55.576,21.019-94.256,59.17-115.881,114.529c-12.2,31.23-17.635,63.922-19.132,97.165
			c-1.926,42.772-3.161,85.59-3.826,128.401C106.197,509.539,106.691,550.041,106.691,590.535z"/>
		<path class="st0" d="M590.709,287.284c166.448-0.469,304.416,135.784,303.04,305.814
			c-1.348,166.568-137.688,302.145-306.156,300.658c-167.569-1.479-303.709-139.714-300.374-309.476
			C290.449,419.87,425.396,286.672,590.709,287.284z M393.773,590.427c0,108.222,87.912,196.559,195.49,196.846
			c109.155,0.291,197.388-87.385,197.928-195.691c0.545-109.406-87.339-196.203-193.523-197.829
			C482.928,392.056,393.556,481.655,393.773,590.427z"/>
		<path class="st0" d="M976.565,275.315c-0.008,39.41-31.812,71.025-71.268,70.844c-39.155-0.18-70.581-31.763-70.583-70.939
			c-0.002-39.139,31.988-71.126,70.993-70.986C944.954,204.375,976.572,236.093,976.565,275.315z"/>
	</g>
</g>
</svg>