<!-- Generator: Adobe Illustrator 21.0.0, SVG Export Plug-In  -->
<svg version="1.1"
	 xmlns="http://www.w3.org/2000/svg" xmlns:xlink="http://www.w3.org/1999/xlink" xmlns:a="http://ns.adobe.com/AdobeSVGViewerExtensions/3.0/"
	 x="0px" y="0px" width="1359.297px" height="1120.106px" viewBox="0 0 1359.297 1120.106"
	 style="enable-background:new 0 0 1359.297 1120.106;" xml:space="preserve">
<style type="text/css">
	.st0{fill:#000000;}
</style>
<defs>
</defs>
<g id="n9EKZD.tif_1_">
	<g>
		<path class="st0" d="M1359.297,146.251c-35.625,36.188-69.375,74.539-107.625,107.699c-20.801,18.032-27.601,35.33-28.542,62.07
			c-10.53,299.227-134.027,539.92-394.548,691.503c-263.767,153.471-536.794,146.499-805.376,0.665
			c-6.394-3.472-12.076-8.254-23.206-15.973c152.238,11.453,284.585-25.518,407.698-117.841
			c-127.842-12.974-213.719-74.999-260.543-190.568c39.255-1.757,76.742-3.435,114.23-5.114c0.548-2.27,1.096-4.539,1.644-6.809
			C130.69,629.023,56.498,540.765,46.038,400.157c40.42,10.828,78.641,21.067,116.862,31.306c1.441-2.558,2.883-5.117,4.324-7.675
			c-56.499-44.116-96.475-98.79-111.405-169.233c-14.716-69.436-5.713-135.274,30.654-200.111
			c103.55,123.084,229.433,209.112,380.665,256.868c64.182,20.267,129.917,31.955,197.509,35.49
			c0-37.729-4.478-73.199,0.824-107.142c17.137-109.706,80.232-185.319,184.315-222.259
			c103.554-36.752,198.283-14.198,280.696,57.357c13.242,11.498,24.307,15.849,40.108,10.27
			c49.603-17.514,99.243-34.922,150.581-52.973c-20.3,59.117-59.648,104.14-111.347,139.943c1.043,2.28,2.085,4.56,3.128,6.84
			c46.651-12.295,93.302-24.59,139.953-36.886C1355.036,143.385,1357.167,144.818,1359.297,146.251z"/>
	</g>
</g>
</svg>