<!-- Generator: Adobe Illustrator 22.0.1, SVG Export Plug-In  -->
<svg version="1.1"
	 xmlns="http://www.w3.org/2000/svg" xmlns:xlink="http://www.w3.org/1999/xlink" xmlns:a="http://ns.adobe.com/AdobeSVGViewerExtensions/3.0/"
	 x="0px" y="0px" width="596.514px" height="292.329px" viewBox="0 0 596.514 292.329"
	 style="enable-background:new 0 0 596.514 292.329;" xml:space="preserve">
<style type="text/css">
	.st0{fill:#FFFFFF;}
	.st1{fill:#F23516;}
	.st2{fill:#0FC5D8;}
	.st3{fill:#F4D01C;}
</style>
<defs>
</defs>
<g>
	<path class="st0" d="M57.306,157.991c0,3.129,0.678,5.542,2.04,7.24c1.357,1.7,3.601,2.548,6.73,2.548H82.39
		c1.495,0,2.785,0.545,3.875,1.63c1.087,1.09,1.631,2.381,1.631,3.876v20.598c0,1.497-0.545,2.788-1.631,3.876
		c-1.09,1.09-2.38,1.63-3.875,1.63H63.017c-6.392,0-12.205-0.918-17.437-2.754c-5.236-1.834-9.687-4.486-13.358-7.953
		c-3.671-3.467-6.526-7.679-8.566-12.643c-2.039-4.961-3.058-10.571-3.058-16.826v-34.26H5.506c-1.498,0-2.788-0.543-3.875-1.633
		C0.542,122.236,0,120.945,0,119.448V98.85c0-1.495,0.542-2.786,1.631-3.876c1.087-1.086,2.377-1.63,3.875-1.63h15.092V60.102
		c0-1.495,0.542-2.784,1.631-3.874c1.087-1.088,2.377-1.633,3.875-1.633H51.8c1.495,0,2.785,0.545,3.875,1.633
		c1.087,1.09,1.631,2.379,1.631,3.874v33.243h23.046c1.494,0,2.785,0.545,3.875,1.63c1.087,1.09,1.631,2.381,1.631,3.876v20.598
		c0,1.497-0.545,2.788-1.631,3.874c-1.09,1.09-2.381,1.633-3.875,1.633H57.306V157.991z"/>
	<path class="st0" d="M179.26,93.344c1.494,0,2.785,0.545,3.875,1.63c1.087,1.09,1.632,2.381,1.632,3.876v20.598
		c0,1.497-0.545,2.788-1.632,3.874c-1.09,1.09-2.381,1.633-3.875,1.633h-18.558c-12.51,0-18.763,6.255-18.763,18.762v50.168
		c0,1.497-0.545,2.788-1.632,3.876c-1.09,1.09-2.38,1.63-3.875,1.63h-25.696c-1.498,0-2.788-0.541-3.875-1.63
		c-1.09-1.088-1.632-2.379-1.632-3.876V98.85c0-1.495,0.542-2.786,1.632-3.876c1.087-1.086,2.377-1.63,3.875-1.63h23.656
		c1.495,0,2.785,0.545,3.875,1.63c1.087,1.09,1.632,2.381,1.632,3.876v4.69c3.126-2.989,6.899-5.436,11.319-7.342
		c4.416-1.902,9.687-2.854,15.805-2.854H179.26z"/>
	<path class="st0" d="M190.273,169.207c0-8.973,3.432-16.381,10.299-22.228c6.863-5.843,18.048-10.126,33.547-12.848l23.861-4.079
		c0-3.263-0.885-5.945-2.651-8.055c-1.768-2.105-4.827-3.161-9.176-3.161c-3.129,0-5.542,0.443-7.24,1.325
		c-1.701,0.886-2.957,1.666-3.773,2.345c-1.223,1.09-2.38,1.77-3.467,2.04c-1.09,0.276-2.38,0.409-3.875,0.409h-25.9
		c-1.36,0-2.482-0.409-3.365-1.223c-0.885-0.816-1.258-1.904-1.122-3.263c0.271-3.127,1.632-6.39,4.079-9.789
		c2.447-3.399,5.811-6.526,10.094-9.382s9.381-5.233,15.295-7.139c5.914-1.902,12.339-2.854,19.273-2.854
		c8.291,0,15.499,1.02,21.616,3.059c6.118,2.038,11.182,4.862,15.193,8.462c4.009,3.604,6.966,7.887,8.871,12.848
		c1.903,4.966,2.856,10.436,2.856,16.417v61.793c0,1.497-0.545,2.788-1.632,3.876c-1.09,1.09-2.381,1.63-3.875,1.63h-25.697
		c-1.497,0-2.788-0.541-3.875-1.63c-1.09-1.088-1.632-2.379-1.632-3.876v-5.71c-3.263,4.077-7.309,7.308-12.134,9.687
		c-4.828,2.377-11.185,3.568-19.068,3.568c-5.848,0-11.047-0.816-15.602-2.447c-4.556-1.633-8.361-3.876-11.42-6.732
		c-3.058-2.854-5.404-6.25-7.036-10.196C191.088,178.114,190.273,173.831,190.273,169.207z M236.77,173.899
		c2.989,0,5.778-0.511,8.362-1.531c2.58-1.02,4.825-2.413,6.73-4.181c1.903-1.764,3.397-3.84,4.486-6.219
		c1.087-2.379,1.631-4.927,1.631-7.648l-18.762,2.854c-3.671,0.683-6.628,1.836-8.871,3.467c-2.244,1.633-3.366,3.742-3.366,6.322
		c0,2.585,0.848,4.385,2.55,5.404C231.229,173.388,233.642,173.899,236.77,173.899z"/>
	<path class="st0" d="M349.038,197.76c-0.886-1.088-1.666-2.245-2.346-3.469l-41.194-94.627c-0.138-0.407-0.205-0.882-0.205-1.427
		c0-1.357,0.475-2.515,1.428-3.467c0.95-0.95,2.106-1.427,3.467-1.427h26.104c2.04,0,3.534,0.545,4.487,1.63
		c0.949,1.09,1.698,2.177,2.243,3.263l22.433,53.228l22.434-53.228c0.539-1.086,1.289-2.173,2.243-3.263
		c0.95-1.086,2.447-1.63,4.486-1.63h26.104c1.357,0,2.515,0.477,3.464,1.427c0.95,0.952,1.429,2.11,1.429,3.467
		c0,0.545-0.068,1.02-0.204,1.427l-41.195,94.627c-0.682,1.223-1.462,2.381-2.345,3.469c-0.886,1.09-2.345,1.63-4.385,1.63h-24.064
		C351.383,199.39,349.92,198.85,349.038,197.76z"/>
	<path class="st0" d="M467.831,157.991c0,3.129,0.577,5.71,1.734,7.749c1.153,2.04,2.616,3.67,4.385,4.896
		c1.764,1.223,3.738,2.074,5.913,2.548c2.173,0.477,4.283,0.715,6.322,0.715c4.079,0,7.306-0.409,9.687-1.225
		c2.377-0.814,4.385-1.968,6.015-3.467c1.495-1.223,2.582-2.004,3.263-2.345c0.678-0.337,1.836-0.509,3.469-0.509h26.511
		c2.989,0,4.486,1.497,4.486,4.486c0,1.63-1.02,4.113-3.059,7.444c-2.04,3.333-5.201,6.73-9.484,10.196
		c-4.281,3.467-9.823,6.494-16.62,9.074c-6.799,2.582-14.886,3.876-24.268,3.876c-8.839,0-16.69-1.259-23.555-3.774
		c-6.867-2.512-12.643-6.149-17.335-10.911c-4.69-4.756-8.226-10.533-10.603-17.335c-2.381-6.795-3.57-14.479-3.57-23.044
		c0-7.883,1.189-15.193,3.57-21.923c2.377-6.73,5.913-12.541,10.603-17.437c4.692-4.893,10.467-8.733,17.335-11.521
		c6.865-2.786,14.716-4.181,23.555-4.181c9.923,0,18.386,1.666,25.389,4.995c7.001,3.333,12.711,7.648,17.131,12.95
		c4.416,5.303,7.612,11.252,9.585,17.846c1.97,6.596,2.956,13.154,2.956,19.68v5.71c0,1.497-0.545,2.788-1.63,3.874
		c-1.09,1.09-2.381,1.633-3.876,1.633H467.831z M486.185,118.835c-5.71,0-10.062,1.703-13.052,5.099
		c-2.992,3.399-4.76,7.207-5.303,11.419h36.709c-0.545-4.213-2.313-8.021-5.303-11.419
		C496.246,120.538,491.895,118.835,486.185,118.835z"/>
	<path class="st0" d="M596.514,193.884c0,1.497-0.545,2.788-1.633,3.876c-1.09,1.09-2.381,1.63-3.874,1.63h-25.697
		c-1.497,0-2.788-0.541-3.876-1.63c-1.09-1.088-1.63-2.379-1.63-3.876V60.102c0-1.495,0.541-2.784,1.63-3.874
		c1.088-1.088,2.379-1.633,3.876-1.633h25.697c1.493,0,2.784,0.545,3.874,1.633c1.088,1.09,1.633,2.379,1.633,3.874V193.884z"/>
</g>
<g>
	<path class="st0" d="M27.541,276.541c-1.697,0-3.187-0.176-4.473-0.526c-1.287-0.351-2.398-0.79-3.333-1.316
		c-0.936-0.526-1.725-1.096-2.368-1.711c-0.644-0.614-1.17-1.184-1.579-1.71v18.682c0,0.642-0.234,1.197-0.702,1.666
		c-0.469,0.468-1.024,0.702-1.666,0.702H2.368c-0.644,0-1.199-0.234-1.666-0.702C0.233,291.158,0,290.603,0,289.961v-57.538
		c0-0.643,0.233-1.198,0.702-1.667c0.467-0.467,1.022-0.701,1.666-0.701h10.613c0.643,0,1.198,0.234,1.666,0.701
		c0.467,0.469,0.702,1.024,0.702,1.667v2.017c0.526-0.584,1.097-1.198,1.711-1.842c0.614-0.643,1.373-1.213,2.28-1.711
		c0.906-0.496,2.018-0.905,3.333-1.227c1.315-0.321,2.938-0.482,4.868-0.482c2.632,0,5.116,0.395,7.455,1.184
		c2.338,0.79,4.386,2.018,6.14,3.684c1.754,1.667,3.171,3.758,4.254,6.272c1.081,2.514,1.681,5.497,1.798,8.946
		c0.057,0.877,0.088,2.061,0.088,3.552s-0.031,2.675-0.088,3.553c-0.118,3.451-0.717,6.433-1.798,8.946
		c-1.082,2.515-2.499,4.605-4.254,6.271c-1.754,1.667-3.802,2.91-6.14,3.728C32.657,276.13,30.172,276.541,27.541,276.541z
		 M31.488,255.315c0.176-1.637,0.176-3.275,0-4.912c-0.176-2.046-0.848-3.829-2.017-5.35c-1.17-1.52-3.129-2.281-5.877-2.281
		c-1.287,0-2.398,0.205-3.333,0.614c-0.936,0.409-1.71,0.951-2.324,1.623c-0.614,0.673-1.096,1.418-1.447,2.236
		c-0.351,0.82-0.585,1.667-0.702,2.544c-0.118,0.877-0.176,1.9-0.176,3.069c0,1.171,0.058,2.193,0.176,3.07
		c0.117,0.877,0.351,1.725,0.702,2.543c0.351,0.82,0.833,1.566,1.447,2.237c0.614,0.673,1.388,1.215,2.324,1.623
		c0.935,0.409,2.046,0.614,3.333,0.614c2.748,0,4.707-0.76,5.877-2.281C30.64,259.145,31.312,257.362,31.488,255.315z"/>
	<path class="st0" d="M87.446,230.054c0.642,0,1.198,0.234,1.666,0.701c0.467,0.469,0.702,1.024,0.702,1.667v8.859
		c0,0.644-0.234,1.199-0.702,1.666c-0.469,0.469-1.024,0.702-1.666,0.702h-7.982c-5.38,0-8.07,2.69-8.07,8.069v21.577
		c0,0.644-0.234,1.199-0.702,1.667c-0.469,0.469-1.024,0.701-1.666,0.701H57.975c-0.644,0-1.199-0.233-1.666-0.701
		c-0.469-0.468-0.702-1.023-0.702-1.667v-40.873c0-0.643,0.233-1.198,0.702-1.667c0.467-0.467,1.022-0.701,1.666-0.701H68.15
		c0.643,0,1.198,0.234,1.666,0.701c0.467,0.469,0.702,1.024,0.702,1.667v2.017c1.345-1.286,2.967-2.338,4.868-3.158
		c1.899-0.818,4.166-1.227,6.798-1.227H87.446z"/>
	<path class="st0" d="M141.213,249.526c0.057,0.877,0.088,2.003,0.088,3.377c0,1.375-0.031,2.5-0.088,3.378
		c-0.118,2.807-0.761,5.437-1.93,7.893c-1.17,2.457-2.778,4.605-4.824,6.447c-2.047,1.842-4.517,3.289-7.411,4.342
		c-2.895,1.052-6.126,1.578-9.692,1.578c-3.567,0-6.798-0.526-9.692-1.578c-2.894-1.053-5.365-2.5-7.412-4.342
		c-2.047-1.842-3.655-3.99-4.824-6.447c-1.17-2.456-1.813-5.086-1.93-7.893c-0.059-0.877-0.088-2.002-0.088-3.378
		c0-1.373,0.029-2.499,0.088-3.377c0.058-2.807,0.672-5.437,1.842-7.894c1.169-2.456,2.792-4.604,4.868-6.446
		c2.075-1.842,4.561-3.303,7.455-4.386c2.894-1.081,6.125-1.622,9.692-1.622c3.566,0,6.798,0.541,9.692,1.622
		c2.894,1.083,5.379,2.544,7.455,4.386c2.075,1.842,3.684,3.99,4.824,6.446C140.468,244.088,141.096,246.719,141.213,249.526z
		 M109.287,255.841c0.176,2.222,0.978,3.962,2.412,5.219c1.432,1.258,3.318,1.886,5.657,1.886c2.338,0,4.224-0.627,5.657-1.886
		c1.433-1.257,2.237-2.996,2.412-5.219c0.116-0.877,0.176-1.871,0.176-2.983c0-1.11-0.059-2.105-0.176-2.982
		c-0.176-2.221-0.98-3.96-2.412-5.219c-1.433-1.257-3.319-1.886-5.657-1.886c-2.339,0-4.225,0.629-5.657,1.886
		c-1.433,1.258-2.236,2.997-2.412,5.219c-0.118,0.877-0.176,1.872-0.176,2.982C109.111,253.97,109.169,254.964,109.287,255.841z"/>
	<path class="st0" d="M169.983,230.054h10.789c0.642,0,1.196,0.234,1.665,0.701c0.469,0.469,0.702,1.024,0.702,1.667v8.859
		c0,0.644-0.233,1.199-0.702,1.666c-0.469,0.469-1.023,0.702-1.665,0.702h-10.789v29.646c0,0.644-0.233,1.199-0.702,1.667
		c-0.469,0.469-1.023,0.701-1.665,0.701h-11.052c-0.644,0-1.199-0.233-1.666-0.701c-0.469-0.468-0.702-1.023-0.702-1.667v-29.646
		h-6.052c-0.644,0-1.199-0.233-1.666-0.702c-0.469-0.467-0.702-1.022-0.702-1.666v-8.859c0-0.643,0.233-1.198,0.702-1.667
		c0.467-0.467,1.022-0.701,1.666-0.701h6.052v-2.368c0-2.689,0.482-5.087,1.447-7.193c0.965-2.105,2.294-3.873,3.991-5.306
		c1.695-1.433,3.713-2.529,6.051-3.289c2.338-0.76,4.882-1.141,7.632-1.141h8.331c0.644,0,1.198,0.234,1.667,0.702
		c0.469,0.469,0.702,1.024,0.702,1.667v8.858c0,0.645-0.233,1.199-0.702,1.667c-0.469,0.469-1.023,0.701-1.667,0.701h-7.893
		c-1.402,0-2.384,0.351-2.938,1.053c-0.556,0.701-0.833,1.609-0.833,2.719V230.054z"/>
	<path class="st0" d="M202.698,257.858c0,1.346,0.248,2.456,0.746,3.333c0.496,0.877,1.125,1.578,1.886,2.105
		c0.759,0.526,1.608,0.892,2.543,1.096c0.935,0.205,1.842,0.307,2.719,0.307c1.754,0,3.142-0.176,4.166-0.527
		c1.022-0.35,1.886-0.846,2.587-1.491c0.643-0.526,1.111-0.862,1.403-1.009c0.292-0.145,0.79-0.219,1.492-0.219h11.402
		c1.286,0,1.93,0.644,1.93,1.93c0,0.701-0.439,1.769-1.316,3.202c-0.877,1.433-2.237,2.894-4.079,4.385
		c-1.841,1.491-4.225,2.793-7.148,3.903c-2.924,1.111-6.402,1.667-10.437,1.667c-3.802,0-7.178-0.542-10.131-1.623
		c-2.954-1.081-5.437-2.644-7.455-4.692c-2.017-2.045-3.538-4.53-4.56-7.455c-1.024-2.923-1.536-6.227-1.536-9.911
		c0-3.39,0.512-6.534,1.536-9.429c1.022-2.894,2.543-5.394,4.56-7.499c2.018-2.105,4.502-3.756,7.455-4.955
		c2.953-1.198,6.329-1.798,10.131-1.798c4.268,0,7.908,0.717,10.92,2.148c3.011,1.433,5.467,3.289,7.368,5.57
		c1.899,2.281,3.274,4.839,4.123,7.675c0.847,2.837,1.271,5.657,1.271,8.464v2.456c0,0.644-0.234,1.199-0.701,1.666
		c-0.469,0.469-1.024,0.702-1.667,0.702H202.698z M210.592,241.018c-2.456,0-4.328,0.732-5.613,2.193
		c-1.287,1.462-2.047,3.099-2.281,4.911h15.788c-0.234-1.812-0.995-3.45-2.281-4.911
		C214.919,241.75,213.048,241.018,210.592,241.018z"/>
	<path class="st0" d="M268.042,261.981c0-0.643-0.22-1.141-0.658-1.491c-0.438-0.351-1.184-0.643-2.236-0.877
		c-1.053-0.233-2.442-0.468-4.166-0.702c-1.725-0.233-3.875-0.584-6.447-1.052c-4.444-0.818-7.865-2.456-10.262-4.911
		c-2.398-2.457-3.596-5.672-3.596-9.649c0-1.987,0.497-3.829,1.492-5.526c0.993-1.695,2.382-3.186,4.166-4.473
		c1.783-1.286,3.931-2.294,6.446-3.027c2.514-0.73,5.321-1.096,8.42-1.096c3.04,0,5.847,0.366,8.42,1.096
		c2.572,0.732,4.794,1.667,6.666,2.807c1.871,1.141,3.348,2.456,4.43,3.947c1.081,1.491,1.681,2.968,1.798,4.429
		c0.057,0.644-0.162,1.199-0.658,1.667c-0.497,0.469-1.067,0.701-1.71,0.701h-10.438c-0.644,0-1.155-0.145-1.535-0.439
		c-0.381-0.292-0.833-0.614-1.36-0.965c-0.526-0.351-1.214-0.671-2.061-0.965c-0.848-0.292-2.033-0.439-3.553-0.439
		c-1.346,0-2.47,0.191-3.377,0.57c-0.907,0.381-1.36,1.009-1.36,1.886c0,0.645,0.145,1.141,0.439,1.491
		c0.292,0.351,0.877,0.629,1.754,0.833c0.877,0.206,2.105,0.425,3.684,0.658c1.578,0.234,3.654,0.556,6.227,0.965
		c5.32,0.877,9.194,2.675,11.622,5.394c2.426,2.719,3.64,5.833,3.64,9.341c0,1.989-0.498,3.845-1.492,5.57
		c-0.995,1.725-2.456,3.245-4.385,4.561c-1.93,1.316-4.269,2.354-7.017,3.113c-2.749,0.76-5.876,1.141-9.385,1.141
		c-3.508,0-6.594-0.395-9.254-1.185c-2.661-0.789-4.898-1.797-6.71-3.026c-1.813-1.228-3.202-2.572-4.166-4.035
		c-0.965-1.461-1.506-2.894-1.622-4.298c-0.059-0.643,0.16-1.197,0.657-1.666c0.496-0.468,1.066-0.702,1.711-0.702h10.876
		c0.643,0,1.11,0.161,1.403,0.482c0.292,0.322,0.671,0.673,1.14,1.052c0.468,0.381,1.141,0.732,2.018,1.053
		c0.876,0.322,2.192,0.482,3.947,0.482c1.754,0,3.275-0.233,4.561-0.702C267.398,263.531,268.042,262.858,268.042,261.981z"/>
	<path class="st0" d="M317.335,261.981c0-0.643-0.22-1.141-0.658-1.491c-0.438-0.351-1.184-0.643-2.236-0.877
		c-1.053-0.233-2.442-0.468-4.166-0.702c-1.725-0.233-3.875-0.584-6.447-1.052c-4.444-0.818-7.865-2.456-10.262-4.911
		c-2.398-2.457-3.596-5.672-3.596-9.649c0-1.987,0.497-3.829,1.492-5.526c0.993-1.695,2.382-3.186,4.166-4.473
		c1.783-1.286,3.931-2.294,6.446-3.027c2.514-0.73,5.321-1.096,8.42-1.096c3.04,0,5.847,0.366,8.42,1.096
		c2.572,0.732,4.794,1.667,6.666,2.807c1.871,1.141,3.347,2.456,4.43,3.947c1.081,1.491,1.681,2.968,1.798,4.429
		c0.057,0.644-0.162,1.199-0.658,1.667c-0.497,0.469-1.067,0.701-1.71,0.701h-10.438c-0.644,0-1.155-0.145-1.535-0.439
		c-0.381-0.292-0.833-0.614-1.36-0.965c-0.526-0.351-1.214-0.671-2.061-0.965c-0.848-0.292-2.033-0.439-3.553-0.439
		c-1.346,0-2.47,0.191-3.377,0.57c-0.907,0.381-1.36,1.009-1.36,1.886c0,0.645,0.145,1.141,0.439,1.491
		c0.292,0.351,0.877,0.629,1.754,0.833c0.877,0.206,2.105,0.425,3.684,0.658c1.578,0.234,3.654,0.556,6.227,0.965
		c5.32,0.877,9.194,2.675,11.622,5.394c2.426,2.719,3.64,5.833,3.64,9.341c0,1.989-0.498,3.845-1.492,5.57
		c-0.995,1.725-2.456,3.245-4.385,4.561c-1.93,1.316-4.269,2.354-7.017,3.113c-2.749,0.76-5.876,1.141-9.385,1.141
		c-3.508,0-6.594-0.395-9.254-1.185c-2.661-0.789-4.898-1.797-6.71-3.026c-1.813-1.228-3.202-2.572-4.166-4.035
		c-0.965-1.461-1.506-2.894-1.622-4.298c-0.059-0.643,0.16-1.197,0.657-1.666c0.496-0.468,1.066-0.702,1.711-0.702h10.876
		c0.643,0,1.11,0.161,1.403,0.482c0.292,0.322,0.671,0.673,1.14,1.052c0.468,0.381,1.141,0.732,2.018,1.053
		c0.876,0.322,2.192,0.482,3.947,0.482c1.754,0,3.275-0.233,4.561-0.702C316.691,263.531,317.335,262.858,317.335,261.981z"/>
	<path class="st0" d="M356.629,222.862c0,0.645-0.234,1.199-0.702,1.667c-0.469,0.469-1.024,0.701-1.666,0.701h-11.052
		c-0.644,0-1.199-0.233-1.667-0.701c-0.469-0.468-0.701-1.022-0.701-1.667v-8.859c0-0.642,0.233-1.197,0.701-1.666
		c0.468-0.468,1.023-0.702,1.667-0.702h11.052c0.642,0,1.197,0.234,1.666,0.702c0.468,0.469,0.702,1.024,0.702,1.666V222.862z
		 M356.629,273.295c0,0.644-0.234,1.199-0.702,1.667c-0.469,0.469-1.024,0.701-1.666,0.701h-11.052
		c-0.644,0-1.199-0.233-1.667-0.701c-0.469-0.468-0.701-1.023-0.701-1.667v-40.873c0-0.643,0.233-1.198,0.701-1.667
		c0.468-0.467,1.023-0.701,1.667-0.701h11.052c0.642,0,1.197,0.234,1.666,0.701c0.468,0.469,0.702,1.024,0.702,1.667V273.295z"/>
	<path class="st0" d="M412.588,249.526c0.057,0.877,0.088,2.003,0.088,3.377c0,1.375-0.03,2.5-0.088,3.378
		c-0.119,2.807-0.761,5.437-1.93,7.893c-1.17,2.457-2.778,4.605-4.824,6.447c-2.047,1.842-4.516,3.289-7.412,4.342
		c-2.894,1.052-6.126,1.578-9.691,1.578c-3.567,0-6.798-0.526-9.692-1.578c-2.894-1.053-5.365-2.5-7.412-4.342
		c-2.047-1.842-3.655-3.99-4.824-6.447c-1.171-2.456-1.814-5.086-1.93-7.893c-0.059-0.877-0.088-2.002-0.088-3.378
		c0-1.373,0.028-2.499,0.088-3.377c0.057-2.807,0.671-5.437,1.842-7.894c1.169-2.456,2.791-4.604,4.868-6.446
		c2.074-1.842,4.561-3.303,7.455-4.386c2.894-1.081,6.125-1.622,9.692-1.622c3.565,0,6.797,0.541,9.691,1.622
		c2.895,1.083,5.379,2.544,7.455,4.386c2.075,1.842,3.684,3.99,4.825,6.446C411.842,244.088,412.469,246.719,412.588,249.526z
		 M380.66,255.841c0.176,2.222,0.979,3.962,2.413,5.219c1.432,1.258,3.317,1.886,5.657,1.886c2.338,0,4.224-0.627,5.657-1.886
		c1.432-1.257,2.237-2.996,2.412-5.219c0.117-0.877,0.175-1.871,0.175-2.983c0-1.11-0.058-2.105-0.175-2.982
		c-0.175-2.221-0.98-3.96-2.412-5.219c-1.433-1.257-3.319-1.886-5.657-1.886c-2.34,0-4.226,0.629-5.657,1.886
		c-1.433,1.258-2.237,2.997-2.413,5.219c-0.118,0.877-0.175,1.872-0.175,2.982C380.485,253.97,380.543,254.964,380.66,255.841z"/>
	<path class="st0" d="M467.582,273.295c0,0.644-0.234,1.199-0.702,1.667c-0.469,0.469-1.024,0.701-1.666,0.701h-11.052
		c-0.644,0-1.199-0.233-1.667-0.701c-0.469-0.468-0.701-1.023-0.701-1.667v-22.19c0-2.514-0.614-4.531-1.842-6.052
		c-1.228-1.52-3.158-2.281-5.789-2.281c-2.632,0-4.547,0.76-5.746,2.281c-1.199,1.521-1.797,3.538-1.797,6.052v22.19
		c0,0.644-0.234,1.199-0.702,1.667c-0.469,0.469-1.024,0.701-1.666,0.701H423.2c-0.644,0-1.199-0.233-1.667-0.701
		c-0.469-0.468-0.701-1.023-0.701-1.667v-40.873c0-0.643,0.233-1.198,0.701-1.667c0.468-0.467,1.023-0.701,1.667-0.701h10.613
		c0.642,0,1.197,0.234,1.666,0.701c0.468,0.469,0.702,1.024,0.702,1.667v2.017c0.467-0.584,1.052-1.198,1.754-1.842
		c0.702-0.643,1.549-1.213,2.544-1.711c0.993-0.496,2.148-0.905,3.464-1.227c1.316-0.321,2.851-0.482,4.605-0.482
		c2.807,0,5.379,0.395,7.718,1.184c2.338,0.79,4.342,2.004,6.008,3.64c1.667,1.638,2.967,3.714,3.904,6.227
		c0.935,2.515,1.403,5.498,1.403,8.946V273.295z"/>
	<path class="st0" d="M474.334,262.682c0-3.859,1.476-7.045,4.43-9.56c2.952-2.513,7.763-4.355,14.429-5.526l10.262-1.754
		c0-1.403-0.381-2.557-1.141-3.464c-0.76-0.905-2.076-1.36-3.947-1.36c-1.346,0-2.384,0.191-3.114,0.57
		c-0.731,0.381-1.272,0.717-1.622,1.009c-0.526,0.469-1.024,0.761-1.492,0.877c-0.469,0.119-1.023,0.176-1.666,0.176h-11.139
		c-0.585,0-1.068-0.176-1.447-0.526c-0.381-0.351-0.542-0.819-0.482-1.403c0.117-1.345,0.702-2.748,1.754-4.21
		s2.499-2.807,4.341-4.035c1.842-1.228,4.035-2.251,6.578-3.07c2.544-0.818,5.306-1.227,8.289-1.227
		c3.565,0,6.666,0.439,9.297,1.316c2.631,0.876,4.808,2.091,6.534,3.639c1.723,1.55,2.996,3.392,3.815,5.526
		c0.818,2.136,1.227,4.488,1.227,7.061v26.576c0,0.644-0.234,1.199-0.701,1.667c-0.469,0.469-1.024,0.701-1.667,0.701h-11.051
		c-0.645,0-1.199-0.233-1.667-0.701c-0.469-0.468-0.701-1.023-0.701-1.667v-2.456c-1.403,1.754-3.144,3.143-5.219,4.166
		c-2.076,1.022-4.811,1.535-8.201,1.535c-2.515,0-4.752-0.351-6.71-1.052c-1.961-0.702-3.596-1.667-4.912-2.895
		c-1.316-1.227-2.324-2.688-3.026-4.385C474.685,266.513,474.334,264.671,474.334,262.682z M494.332,264.7
		c1.286,0,2.485-0.22,3.596-0.658c1.11-0.439,2.074-1.038,2.894-1.798c0.818-0.759,1.461-1.651,1.93-2.674
		c0.468-1.023,0.702-2.119,0.702-3.289l-8.07,1.227c-1.578,0.294-2.851,0.79-3.815,1.491c-0.965,0.702-1.447,1.609-1.447,2.719
		c0,1.112,0.365,1.886,1.097,2.324C491.95,264.48,492.987,264.7,494.332,264.7z"/>
	<path class="st0" d="M544.765,273.295c0,0.644-0.234,1.199-0.702,1.667c-0.469,0.469-1.024,0.701-1.666,0.701h-11.052
		c-0.644,0-1.199-0.233-1.667-0.701c-0.469-0.468-0.701-1.023-0.701-1.667v-57.538c0-0.643,0.232-1.197,0.701-1.666
		c0.468-0.468,1.023-0.702,1.667-0.702h11.052c0.642,0,1.197,0.234,1.666,0.702c0.468,0.469,0.702,1.023,0.702,1.666V273.295z"/>
	<path class="st0" d="M580.726,261.981c0-0.643-0.22-1.141-0.658-1.491c-0.438-0.351-1.184-0.643-2.236-0.877
		c-1.053-0.233-2.442-0.468-4.166-0.702c-1.725-0.233-3.875-0.584-6.447-1.052c-4.444-0.818-7.865-2.456-10.262-4.911
		c-2.398-2.457-3.596-5.672-3.596-9.649c0-1.987,0.497-3.829,1.492-5.526c0.993-1.695,2.382-3.186,4.166-4.473
		c1.783-1.286,3.931-2.294,6.446-3.027c2.514-0.73,5.321-1.096,8.42-1.096c3.04,0,5.847,0.366,8.42,1.096
		c2.572,0.732,4.794,1.667,6.666,2.807c1.871,1.141,3.347,2.456,4.43,3.947c1.081,1.491,1.681,2.968,1.798,4.429
		c0.057,0.644-0.162,1.199-0.658,1.667c-0.497,0.469-1.067,0.701-1.71,0.701h-10.438c-0.644,0-1.155-0.145-1.535-0.439
		c-0.381-0.292-0.833-0.614-1.36-0.965c-0.526-0.351-1.214-0.671-2.061-0.965c-0.848-0.292-2.033-0.439-3.553-0.439
		c-1.346,0-2.47,0.191-3.377,0.57c-0.907,0.381-1.36,1.009-1.36,1.886c0,0.645,0.145,1.141,0.439,1.491
		c0.292,0.351,0.877,0.629,1.754,0.833c0.877,0.206,2.105,0.425,3.684,0.658c1.578,0.234,3.654,0.556,6.227,0.965
		c5.32,0.877,9.194,2.675,11.622,5.394c2.426,2.719,3.64,5.833,3.64,9.341c0,1.989-0.498,3.845-1.492,5.57
		c-0.995,1.725-2.456,3.245-4.385,4.561c-1.93,1.316-4.269,2.354-7.017,3.113c-2.749,0.76-5.876,1.141-9.385,1.141
		c-3.508,0-6.594-0.395-9.254-1.185c-2.661-0.789-4.898-1.797-6.71-3.026c-1.813-1.228-3.202-2.572-4.166-4.035
		c-0.965-1.461-1.506-2.894-1.622-4.298c-0.059-0.643,0.16-1.197,0.657-1.666c0.496-0.468,1.066-0.702,1.711-0.702h10.876
		c0.643,0,1.11,0.161,1.403,0.482c0.292,0.322,0.671,0.673,1.14,1.052c0.468,0.381,1.141,0.732,2.018,1.053
		c0.876,0.322,2.192,0.482,3.947,0.482s3.275-0.233,4.561-0.702C580.082,263.531,580.726,262.858,580.726,261.981z"/>
</g>
<g>
	<path class="st0" d="M104.191,50.032c0,1.514,0.329,2.682,0.987,3.505c0.657,0.823,1.743,1.232,3.257,1.232h7.895
		c0.723,0,1.347,0.265,1.875,0.791c0.526,0.528,0.79,1.151,0.79,1.874v9.967c0,0.725-0.264,1.351-0.79,1.876
		c-0.528,0.526-1.152,0.789-1.875,0.789h-9.374c-3.093,0-5.906-0.443-8.438-1.331c-2.534-0.888-4.688-2.171-6.463-3.85
		c-1.777-1.677-3.158-3.715-4.145-6.117c-0.987-2.402-1.48-5.116-1.48-8.142v-16.58h-7.303c-0.725,0-1.35-0.263-1.875-0.789
		c-0.527-0.526-0.79-1.151-0.79-1.876v-9.967c0-0.723,0.263-1.348,0.79-1.874c0.526-0.526,1.15-0.791,1.875-0.791h7.303V2.663
		c0-0.723,0.262-1.346,0.789-1.874C87.742,0.263,88.367,0,89.092,0h12.435c0.723,0,1.347,0.263,1.874,0.789
		c0.526,0.528,0.79,1.151,0.79,1.874v16.086h11.151c0.723,0,1.348,0.265,1.875,0.791c0.526,0.526,0.79,1.151,0.79,1.874v9.967
		c0,0.725-0.264,1.351-0.79,1.876c-0.527,0.526-1.152,0.789-1.875,0.789h-11.151V50.032z"/>
	<path class="st0" d="M179.981,67.401c0,0.725-0.264,1.351-0.79,1.876c-0.527,0.526-1.152,0.789-1.875,0.789h-12.434
		c-0.725,0-1.35-0.263-1.875-0.789c-0.527-0.526-0.79-1.151-0.79-1.876V42.434c0-2.828-0.69-5.097-2.072-6.808
		c-1.381-1.711-3.552-2.568-6.513-2.568c-2.96,0-5.116,0.857-6.463,2.568c-1.35,1.711-2.023,3.98-2.023,6.808v24.967
		c0,0.725-0.264,1.351-0.79,1.876c-0.528,0.526-1.152,0.789-1.875,0.789h-12.434c-0.725,0-1.35-0.263-1.875-0.789
		c-0.527-0.526-0.79-1.151-0.79-1.876V2.663c0-0.723,0.263-1.346,0.79-1.874C128.697,0.263,129.321,0,130.047,0h12.434
		c0.723,0,1.347,0.263,1.875,0.789c0.526,0.528,0.79,1.151,0.79,1.874v21.022c1.117-1.382,2.861-2.714,5.229-3.997
		c2.369-1.285,5.098-1.925,8.191-1.925c3.158,0,6.052,0.443,8.684,1.331c2.63,0.888,4.885,2.256,6.76,4.096
		c1.874,1.842,3.338,4.179,4.391,7.007c1.052,2.828,1.58,6.185,1.58,10.065V67.401z"/>
	<path class="st0" d="M206.329,50.032c0,1.514,0.28,2.765,0.84,3.751c0.558,0.986,1.266,1.777,2.121,2.368
		c0.854,0.592,1.809,1.005,2.862,1.234c1.052,0.231,2.072,0.346,3.059,0.346c1.973,0,3.535-0.197,4.687-0.592
		c1.151-0.396,2.122-0.954,2.912-1.679c0.723-0.592,1.249-0.969,1.578-1.134c0.329-0.163,0.888-0.246,1.678-0.246h12.828
		c1.447,0,2.171,0.723,2.171,2.171c0,0.789-0.493,1.991-1.48,3.602s-2.517,3.257-4.589,4.934s-4.753,3.142-8.043,4.391
		c-3.291,1.249-7.203,1.874-11.743,1.874c-4.278,0-8.077-0.608-11.398-1.825c-3.323-1.215-6.119-2.975-8.389-5.279
		c-2.27-2.303-3.982-5.097-5.132-8.388c-1.151-3.288-1.727-7.007-1.727-11.152c0-3.814,0.576-7.351,1.727-10.607
		c1.15-3.257,2.862-6.07,5.132-8.438c2.27-2.368,5.065-4.228,8.389-5.576c3.321-1.348,7.121-2.023,11.398-2.023
		c4.801,0,8.896,0.806,12.285,2.417c3.388,1.613,6.152,3.702,8.29,6.267c2.137,2.565,3.684,5.445,4.638,8.636
		c0.953,3.191,1.431,6.365,1.431,9.522v2.765c0,0.723-0.264,1.348-0.79,1.874c-0.527,0.528-1.151,0.789-1.874,0.789H206.329z
		 M215.212,31.086c-2.764,0-4.87,0.823-6.316,2.466c-1.448,1.645-2.304,3.488-2.567,5.527h17.764
		c-0.264-2.04-1.119-3.882-2.566-5.527C220.08,31.909,217.974,31.086,215.212,31.086z"/>
</g>
<g>
	<circle class="st1" cx="314.249" cy="34.76" r="34.242"/>
	<circle class="st2" cx="405.109" cy="34.76" r="34.242"/>
	<circle class="st3" cx="495.97" cy="34.76" r="34.242"/>
</g>
</svg>